<svg width="260" height="260" viewBox="0 0 260 260" fill="none" xmlns="http://www.w3.org/2000/svg">
<path d="M220.397 210.21C220.397 211.768 209.185 213.03 195.355 213.03C181.525 213.03 170.313 211.768 170.313 210.21C170.313 208.653 181.525 207.39 195.355 207.39C209.185 207.39 220.397 208.653 220.397 210.21ZM184.83 174.159C184.83 174.159 171.93 172.224 163.759 183.834C163.759 183.834 177.735 187.489 182.25 191.36C186.766 195.23 191.281 194.37 191.281 194.37C191.281 194.37 192.141 177.384 184.83 174.159Z" fill="#FFEDCD"/>
<path d="M181.424 182.605C181.424 182.605 180.053 179.144 180.18 179.089C180.308 179.033 182.057 182.806 182.057 182.806C185.789 184.035 188.523 185.662 188.68 186.029C188.735 186.156 188.676 186.304 188.549 186.358C188.517 186.372 188.483 186.378 188.45 186.378C188.36 186.378 188.273 186.329 188.229 186.246C187.951 185.911 184.389 183.883 179.89 182.71C179.886 182.712 179.883 182.716 179.879 182.718C179.879 182.718 175.762 184.811 175.878 184.735L179.227 182.545C177.059 182.032 172.158 181.843 172.146 181.705C172.134 181.567 178.679 181.762 181.424 182.605Z" fill="#F6D291"/>
<path d="M207.514 165.128C207.514 165.128 200.849 164.053 200.204 155.883C199.559 147.712 194.613 137.821 192.248 139.972C189.883 142.122 191.603 149.862 188.378 151.798C185.153 153.732 174.402 156.958 177.627 167.493C180.853 178.029 186.658 177.599 186.658 180.179C186.658 182.759 182.573 188.564 187.518 193.08C192.463 197.595 197.839 195.015 197.839 195.015L207.514 165.128Z" fill="#F6D291"/>
<path d="M194.337 199.865L193.291 183.891C193.289 183.89 193.288 183.889 193.286 183.888C191.1 182.033 188.146 179.471 188.283 179.486C188.859 179.552 191.875 182.043 193.245 183.196L192.556 172.669C192.526 172.659 192.497 172.645 192.472 172.624C189.941 170.476 186.561 167.618 186.698 167.634C187.369 167.711 191.015 170.737 192.512 172L191.949 163.413C191.943 163.409 191.936 163.407 191.931 163.402C190.321 162.036 188.089 159.974 188.227 159.99C188.659 160.04 190.729 161.735 191.904 162.723C191.904 162.723 191.494 154.744 191.632 154.735C191.77 154.726 192.511 164.304 192.511 164.304C193.556 163.168 195.349 161.273 195.765 161.17C195.9 161.137 193.975 163.441 192.556 164.997L193.113 173.502C194.5 171.991 197.566 168.714 198.202 168.557C198.334 168.524 195.385 171.755 193.158 174.196L193.837 184.563C195.024 183.27 197.761 180.339 198.331 180.198C198.465 180.164 195.865 183.081 193.932 185.203C193.917 185.22 193.9 185.233 193.882 185.245L194.838 199.832C194.844 199.927 194.796 200.014 194.72 200.061C194.686 200.083 194.647 200.096 194.604 200.099C194.465 200.108 194.346 200.003 194.337 199.865Z" fill="#FFEDCD"/>
<path d="M223.425 149.432C223.425 149.432 204.074 155.452 198.914 173.083C193.753 190.715 198.914 194.585 198.914 194.585C198.914 194.585 213.105 194.37 219.77 178.029C226.435 161.688 223.425 149.432 223.425 149.432Z" fill="#FFEDCD"/>
<path d="M198.12 195.899L205.724 181.812C205.724 181.811 205.723 181.81 205.722 181.808C204.857 179.074 203.386 175.567 203.472 175.459C203.558 175.351 205.508 179.495 206.055 181.2L211.067 171.916C211.047 171.892 211.03 171.865 211.02 171.833C210.017 168.668 208.674 164.451 208.782 164.538C209.309 164.96 210.789 169.461 211.385 171.327L215.473 163.754C215.47 163.747 215.465 163.742 215.463 163.735C214.826 161.722 214.031 158.789 214.139 158.876C214.479 159.148 215.332 161.684 215.802 163.145C215.802 163.145 219.695 156.169 219.817 156.235C219.939 156.301 215.475 164.807 215.475 164.807C216.964 164.4 219.49 163.748 219.898 163.883C220.029 163.926 217.174 164.854 215.145 165.418L211.096 172.918C213.075 172.375 217.413 171.23 218.035 171.435C218.164 171.477 213.949 172.645 210.766 173.53L205.83 182.672C207.523 182.207 211.399 181.18 211.956 181.363C212.088 181.406 208.335 182.495 205.57 183.265C205.549 183.27 205.527 183.273 205.506 183.273L198.561 196.137C198.516 196.221 198.429 196.269 198.34 196.269C198.3 196.269 198.259 196.259 198.221 196.239C198.099 196.173 198.054 196.021 198.12 195.899Z" fill="#F6D291"/>
<path d="M193.661 211.781C193.526 211.784 193.387 211.786 193.249 211.786C180.778 211.786 183.573 195.23 183.573 195.23H205.075C205.075 195.23 207.393 211.463 193.661 211.781Z" fill="#F5A209"/>
<path d="M193.661 211.781C193.713 211.76 193.767 211.737 193.822 211.714C199.864 209.241 197.024 196.306 196.777 195.23H205.075C205.075 195.23 207.393 211.463 193.661 211.781Z" fill="#FFB939"/>
<path d="M47.8514 210.887C48.7915 211.454 117.504 211.549 134.42 211.549C151.337 211.549 156.562 169.314 141.71 163.51C126.857 157.706 100.269 110.543 88.4686 101.02C76.6676 91.4964 56.0846 88.8623 44.5581 101.02C33.0316 113.177 31.9338 201.291 47.8514 210.887Z" fill="#F6D291"/>
<path d="M46.4792 196.79C48.0028 198.803 60.3842 203.193 67.4282 202.736C95.3811 200.921 140.867 200.701 141.253 201.73C141.801 203.193 74.6552 203.711 64.4094 203.894C54.1635 204.077 46.4792 196.79 46.4792 196.79Z" fill="#ECB754"/>
<path d="M149.863 190.438C148.169 201.449 142.687 211.551 134.418 211.551C131.4 211.551 126.718 211.551 121.082 211.535C123.161 207.716 130.445 201.772 131.923 195.874C134.11 187.097 117.648 179.228 116.001 177.95C114.507 176.795 93.8259 206.038 90.0376 211.443C86.0184 211.443 82.0455 211.412 78.2111 211.397C83.0926 204.144 95.258 187.944 93.7796 183.986C91.8547 178.858 66.9698 189.099 63.6743 180.691C60.3789 172.267 71.1736 153.788 70.6347 152.203C70.0804 150.616 62.5811 154.343 55.2664 148.984C47.9364 143.61 62.2114 107.683 60.9948 107.483C60.0862 107.314 53.9265 101.462 51.7861 95.7336C61.3489 91.0832 73.4835 92.4075 82.8462 97.3505C82.8462 112.58 82.8307 133.677 82.7076 136.772C82.5228 141.716 124.716 155.991 124.716 155.991L149.863 190.438Z" fill="#ECB754"/>
<path d="M103.893 96.5695L117.971 109.884C117.971 109.884 119.069 115.098 118.657 116.608C118.245 118.117 111.554 118.389 111.554 118.389L100.27 110.776L103.893 96.5695Z" fill="#D7BD8E"/>
<path d="M98.7767 211.799L97.8303 212L99.1076 212.771L98.7767 211.799Z" fill="#5C4211"/>
<path d="M85.9762 209.399C85.9762 209.399 84.5158 209.906 85.1595 211.132C85.8034 212.357 96.2325 218.931 99.1175 219.343C102.003 219.754 106.04 216.433 104.492 215.683C102.943 214.932 85.9762 209.399 85.9762 209.399Z" fill="#5C4211"/>
<path d="M87.4516 209.123C87.4516 209.123 84.7218 209.239 85.3656 210.464C86.0094 211.69 96.4387 218.264 99.3236 218.675C102.209 219.086 106.04 216.433 104.492 215.683C102.943 214.932 87.4516 209.123 87.4516 209.123Z" fill="#FFB939"/>
<path d="M95.8279 216.294C94.8388 215.701 93.6871 215.017 92.5378 214.308C88.7804 211.987 85.0456 209.388 87.0478 208.715C88.6362 208.18 90.6206 206.511 91.9296 205.284C92.7715 204.499 93.3326 203.894 93.3326 203.894L97.8165 206.606L95.2118 209.986C95.2118 209.986 98.983 213.399 102.769 214.321C105.303 214.938 100.052 218.831 95.8279 216.294Z" fill="#D7BD8E"/>
<path d="M93.0976 215.391C93.0976 215.391 99.4562 213.799 101.399 215.277C101.399 215.277 100.295 213.978 100.373 212.838C100.373 212.838 99.1234 211.472 98.7767 211.799C98.2382 212.306 100.242 214.371 100.242 214.371C100.242 214.371 94.4688 213.396 91.3335 214.289L93.0976 215.391Z" fill="#7C612F"/>
<path d="M167.905 207.935L167.375 208.744L168.825 208.392L167.905 207.935Z" fill="#5C4211"/>
<path d="M157.129 215.249C157.129 215.249 156.45 216.638 157.77 217.054C159.091 217.471 171.124 214.79 173.461 213.049C175.799 211.309 176.325 206.108 174.697 206.666C173.07 207.224 157.129 215.249 157.129 215.249Z" fill="#5C4211"/>
<path d="M157.982 214.014C157.982 214.014 156.126 216.019 157.446 216.435C158.766 216.852 170.799 214.17 173.137 212.43C175.475 210.69 176.325 206.108 174.697 206.666C173.07 207.224 157.982 214.014 157.982 214.014Z" fill="#FFB939"/>
<path d="M168.979 213.203C167.859 213.478 166.56 213.804 165.244 214.111C160.943 215.11 156.461 215.896 157.408 214.009C158.158 212.51 154.643 206.967 154.643 206.967L161.367 205.115L164.098 209.16C164.098 209.16 169.179 208.926 172.515 206.913C174.749 205.566 173.764 212.028 168.979 213.203Z" fill="#D7BD8E"/>
<path d="M166.405 214.486C166.405 214.486 169.796 208.876 172.217 208.556C172.217 208.556 170.517 208.412 169.77 207.548C169.77 207.548 167.921 207.459 167.905 207.935C167.88 208.675 170.756 208.729 170.756 208.729C170.756 208.729 165.973 212.104 164.377 214.946L166.405 214.486ZM107.306 143.444C107.306 143.444 137.09 151.096 140.521 158.232C143.951 165.367 163.71 205.114 163.71 205.114L154.866 209.361L125.907 173.005C125.907 173.005 98.4877 164.044 91.3334 160.223C84.1791 156.401 85.8865 140.734 85.8865 140.734L107.223 140.072L107.306 143.444Z" fill="#7C612F"/>
<path d="M163.711 205.115L154.863 209.364L125.913 173.007C125.913 173.007 98.491 164.044 91.3305 160.225C84.1853 156.406 85.8791 140.73 85.8791 140.73L89.3705 140.453L90.7563 143.44C90.7563 143.44 133.289 155.436 137.631 159.563C141.989 163.675 132.565 171.482 133.751 174.716C134.936 177.95 138.34 178.489 138.786 178.858C139.233 179.228 136.045 182.708 137.139 183.617C138.232 184.525 150.927 199.989 155.248 204.205C157.399 206.304 163.711 205.115 163.711 205.115Z" fill="#5C4211"/>
<path d="M92.5851 140.453L92.4859 144.459C92.4859 144.459 130.841 157.499 134.217 162.165C137.593 166.83 97.7994 207.95 97.7994 207.95L89.7151 204.017L106.827 173.184C106.827 173.184 87.7838 175.063 79.7379 169.437C71.692 163.811 72.6982 140.896 72.6982 140.896L92.5851 140.453Z" fill="#7C612F"/>
<path d="M117.556 171.282C112.228 174.855 97.404 195.717 91.5831 204.926L89.7144 204.02L106.823 173.191C106.823 173.191 87.7783 175.07 79.74 169.434C71.6862 163.813 72.7026 140.899 72.7026 140.899L88.3789 140.668C82.2038 142.809 74.766 143.656 76.7678 146.797C79.2318 150.632 81.711 153.249 80.0632 156.683C78.4155 160.102 72.102 168.341 90.7657 167.648C109.429 166.97 125.24 159.563 117.695 164.768C110.149 169.988 108.64 171.636 111.797 171.22C114.954 170.804 124.424 166.678 117.556 171.282ZM98.9742 75.1675C98.991 75.2245 99.0029 75.2828 99.0193 75.3402C98.2125 72.6962 96.8881 70.249 95.1046 68.1425C91.966 64.4363 87.2113 64.6597 84.0496 66.3633C84.0537 66.3602 84.0579 66.357 84.0621 66.3539C84.0534 66.3588 84.0459 66.3647 84.0373 66.3692C83.9054 66.4404 83.7839 66.52 83.6581 66.596C82.6918 67.1735 81.8148 67.9106 81.0893 68.7853C80.2635 69.7859 79.65 70.942 79.1144 72.1094C78.5696 73.2738 78.1256 74.4773 77.4964 75.5621C77.1787 76.0998 76.821 76.6129 76.3806 77.0416C75.948 77.4662 75.4216 77.8334 74.9016 78.1824C72.8105 79.5926 70.3248 80.3101 67.918 81.155C66.6936 81.5724 65.5176 82.1338 64.4294 82.8277C63.3656 83.5514 62.3494 84.3774 61.5896 85.4149C62.4351 84.4524 63.4674 83.6804 64.5588 83.0362C65.6561 82.3978 66.8231 81.8866 68.0364 81.522C69.2642 81.1574 70.4823 80.7577 71.6922 80.3125C72.8965 79.8608 74.0956 79.3284 75.1778 78.5988C75.7134 78.2281 76.2404 77.8545 76.7174 77.3773C77.19 76.9061 77.5641 76.3541 77.8898 75.7884C78.5334 74.6475 78.9712 73.4353 79.4591 72.2603C79.8793 71.2481 80.3666 70.2658 80.9793 69.3642C79.3567 72.173 78.7782 75.6514 77.4454 77.3838C74.3751 81.3747 68.2881 80.913 63.1906 84.6797C57.9124 88.5798 57.3081 97.9353 64.0726 103.408C70.448 108.565 84.8712 107.131 93.0614 98.0978C98.3807 92.2313 100.411 85.5404 99.8332 79.4528C100.134 82.0932 100.02 84.772 99.4246 87.3501C98.9548 89.3408 98.2244 91.2683 97.2402 93.0591C96.2555 94.849 95.0415 96.5135 93.6461 98.0087C92.2513 99.5023 90.7395 100.902 89.0655 102.078C87.404 103.272 85.5896 104.248 83.6954 105.024C81.8 105.798 79.8104 106.351 77.7798 106.661C75.7525 106.981 73.6796 107.09 71.6266 106.873C75.7193 107.482 79.9635 106.868 83.843 105.396C87.733 103.904 91.2027 101.405 94.0142 98.3462C96.8199 95.2832 98.9496 91.5229 99.7941 87.432C100.656 83.3535 100.324 79.0675 98.9742 75.1675Z" fill="#5C4211"/>
<path d="M93.7744 93.9662L94.369 91.571L108.686 102.657C108.686 102.657 105.758 115.03 105.209 116.127C104.66 117.225 96.3298 112.285 96.3298 112.285L93.7744 93.9662Z" fill="#FFB939"/>
<path d="M99.9241 103.71C99.9241 103.71 105.206 112.103 104.898 116.276C103.805 116.369 100.278 114.505 98.1069 113.304L96.5054 97.597L99.9241 103.71ZM108.686 102.663C108.686 102.663 107.424 107.976 106.407 111.934L100.725 96.5036L108.686 102.663Z" fill="#F5A209"/>
<path d="M71.7277 142.27C72.071 144.487 102.877 145.684 108.503 143.625C114.129 141.567 105.209 139.117 105.209 137.471C105.209 135.825 101.642 118.601 101.642 118.015C101.642 117.43 101.723 113.226 101.449 110.89C101.174 108.554 97.8453 103.891 97.8453 103.891C97.8453 103.891 95.6041 91.9585 94.369 91.5709C93.134 91.1835 81.1959 92.4204 79.961 92.6221C78.726 92.8238 69.9555 130.822 71.7277 142.27Z" fill="#FFB939"/>
<path d="M79.5971 93.2083C79.751 92.8387 79.8742 92.6383 79.9666 92.6231C81.1986 92.4229 93.1329 91.191 94.3647 91.5759C94.6573 91.6684 95.0116 92.3921 95.3657 93.4699C95.3657 93.4854 95.3657 93.4854 95.3657 93.5007C95.3657 95.7643 94.4419 98.1668 90.8229 98.8442C85.6335 99.8145 81.5527 95.7182 79.5971 93.2083ZM80.7212 140.068C81.214 141.13 86.2341 143.841 93.8413 144.672C83.5546 144.595 71.9282 143.625 71.7281 142.27C70.8811 136.819 72.4364 125.315 74.423 114.752L82.292 103.233C82.292 103.233 79.6125 120.511 79.3507 121.481C79.0735 122.436 75.1313 132.83 75.1313 132.83L101.449 130.736L104.421 132.614C104.883 135.063 105.206 136.972 105.206 137.465C105.206 138.451 108.44 139.744 109.779 141.053C104.667 141.839 95.027 141.946 93.1175 141.238C90.9308 140.422 92.3169 137.326 89.8375 137.665C87.3736 138.02 80.0282 138.636 80.7212 140.068Z" fill="#F5A209"/>
<path d="M101.23 82.5894C101.23 82.5894 119.68 110.476 120.304 114.206C120.927 117.937 118.978 118.853 116.05 119.489C113.121 120.125 109.133 116.745 109.133 116.745L97.5664 84.4983L101.23 82.5894Z" fill="#D7BD8E"/>
<path d="M120.881 122.164H99.5496C98.6092 122.164 97.7094 122.927 97.5398 123.867L95.0946 137.43C94.9251 138.371 95.5501 139.133 96.4905 139.133H117.821C118.762 139.133 119.662 138.371 119.831 137.43L122.276 123.867C122.446 122.927 121.821 122.164 120.881 122.164Z" fill="#FFEDCD"/>
<path d="M121.604 122.729H100.273C99.3329 122.729 98.433 123.492 98.2634 124.432L95.8183 137.995C95.6487 138.936 96.2737 139.698 97.2141 139.698H118.545C119.485 139.698 120.385 138.936 120.555 137.995L123 124.432C123.17 123.492 122.545 122.729 121.604 122.729Z" fill="#F6D291"/>
<path d="M97.9404 139.698C97.9404 139.698 118.887 139.751 118.925 139.698C118.962 139.645 110.755 138.535 97.9404 139.698Z" fill="#ECB754"/>
<path d="M77.3413 114.135L72.7152 129.398L93.1162 128.455C93.1162 128.455 91.657 134.468 91.7942 134.879C91.9314 135.291 72.1851 140.667 64.5008 137.785C56.8165 134.904 65.7387 112.469 65.7387 112.469L77.3413 114.135Z" fill="#D7BD8E"/>
<path d="M66.4676 131.093C65.7811 131.927 73.5573 129.863 71.8649 129.212C70.1726 128.561 67.2452 130.149 66.4676 131.093Z" fill="#C1A97C"/>
<path d="M79.961 92.6221L71.4923 96.2304C71.4923 96.2304 62.0309 113.726 63.1287 114.824C64.2264 115.921 76.5991 119.832 76.5991 119.832L83.4373 102.565C83.4373 102.565 85.4499 98.2305 79.961 92.6221Z" fill="#FFB939"/>
<path d="M93.7371 128.16C95.5256 127.449 97.3637 127.571 98.1303 127.668C99.4313 127.834 103.78 129.856 103.78 129.856C103.78 129.856 103.609 130.491 103.418 130.679C103.107 130.985 102.294 130.989 101.448 130.736C101.996 131.018 102.948 131.631 102.948 131.631C102.948 131.631 102.563 132.301 102.323 132.424C102.001 132.587 101.284 132.526 100.756 132.349C101.123 132.589 101.766 132.959 101.766 132.959C101.766 132.959 101.25 133.666 100.993 133.751C100.505 133.912 99.6582 133.662 98.9403 133.401C99.4325 133.662 100.164 134.301 100.164 134.301C100.164 134.301 99.578 134.839 99.3469 134.922C98.4493 135.245 95.7333 134.171 95.7333 134.171C93.9715 136.286 92.1637 134.982 90.9282 135.041C90.6294 135.051 90.3652 130.332 90.3652 130.332C90.3652 130.332 92.4008 128.688 93.7371 128.16Z" fill="#D7BD8E"/>
<path d="M98.3899 129.619C98.3857 129.646 98.562 129.692 98.8411 129.781C99.1203 129.871 99.5032 130.002 99.9213 130.164C100.758 130.486 101.426 130.779 101.448 130.736C101.469 130.694 100.83 130.329 99.9831 130.003C99.5603 129.84 99.1641 129.724 98.872 129.663C98.5794 129.603 98.3929 129.598 98.3899 129.619ZM97.8657 131.224C97.8595 131.248 98.0217 131.311 98.282 131.412C98.5673 131.526 98.9144 131.664 99.298 131.816C100.091 132.135 100.736 132.393 100.756 132.349C100.776 132.306 100.16 131.977 99.3623 131.656C98.9634 131.496 98.5937 131.37 98.3203 131.296C98.0465 131.223 97.871 131.202 97.8657 131.224ZM97.5236 132.84C97.5052 132.884 97.8667 133.078 98.3311 133.274C98.7955 133.47 99.1871 133.593 99.2056 133.549C99.224 133.505 98.8625 133.311 98.3981 133.115C97.9336 132.919 97.5422 132.796 97.5236 132.84Z" fill="#C1A97C"/>
<path d="M92.0054 79.6169L99.7184 86.0508C100.058 86.3345 100.614 86.3302 100.959 86.0414L104.142 83.4856C104.487 83.1966 104.491 82.7324 104.151 82.4488L96.4384 76.0149C96.0984 75.7312 95.5431 75.7355 95.1981 76.0244L92.0143 78.5802C91.6693 78.8692 91.6653 79.3334 92.0054 79.6169Z" fill="#F6D291"/>
<path d="M91.0721 79.6169L98.785 86.0508C99.125 86.3345 99.6804 86.3302 100.025 86.0414L103.209 83.4856C103.554 83.1966 103.558 82.7324 103.218 82.4488L95.5051 76.0149C95.1651 75.7312 94.6097 75.7355 94.2648 76.0244L91.081 78.5802C90.736 78.8692 90.732 79.3334 91.0721 79.6169Z" fill="#FFEDCD"/>
<path d="M98.8162 77.5752C98.8162 77.5752 98.911 76.642 97.6895 76.9513C96.4678 77.2607 96.5118 78.1035 96.8965 78.2398C97.2813 78.3761 97.5179 78.4922 98.0579 78.0565C98.0579 78.0565 97.8007 78.6023 98.2094 78.8194C98.618 79.0364 99.0388 78.8503 99.0388 78.8503C99.0388 78.8503 98.7101 79.2879 98.845 79.4819C98.9798 79.6759 99.5575 79.8237 100.057 79.4891C100.057 79.4891 99.861 80.0714 100.589 80.1192C101.075 80.151 101.241 80.0396 101.241 80.0396L101.793 80.5313C101.793 80.5313 102.231 79.3358 100.938 78.9341C100.938 78.9341 100.877 78.0595 99.8914 78.3532C99.8914 78.3532 99.923 77.1499 98.8162 77.5752Z" fill="#D7BD8E"/>
<path d="M98.8121 77.5859C98.8228 77.6244 98.6301 77.7008 98.4229 77.8377C98.2129 77.9717 98.0703 78.1166 98.0412 78.0971C98.0077 78.0772 98.1196 77.8738 98.3504 77.7263C98.5796 77.5759 98.8054 77.5532 98.8121 77.5859ZM99.9071 78.3299C99.9109 78.349 99.861 78.3758 99.7845 78.4212C99.7074 78.4665 99.6025 78.5322 99.4864 78.6069C99.2542 78.7562 99.0625 78.8792 99.0388 78.8504C99.0155 78.8228 99.1733 78.6503 99.4146 78.495C99.5351 78.4175 99.6545 78.3608 99.7476 78.3348C99.8411 78.3083 99.904 78.3129 99.9071 78.3299ZM100.938 78.9341C100.939 78.9543 100.883 78.9738 100.8 79.0154C100.717 79.0578 100.607 79.126 100.491 79.2119C100.257 79.3829 100.077 79.5437 100.049 79.5183C100.022 79.4951 100.163 79.2872 100.413 79.1044C100.536 79.0131 100.666 78.9507 100.768 78.9271C100.871 78.904 100.937 78.9177 100.938 78.9341Z" fill="#C1A97C"/>
<path d="M80.9832 92.3425L93.5686 91.382C93.5686 91.382 94.5137 96.4171 90.5615 97.5835C86.6092 98.7499 81.7378 95.6358 80.9832 92.3425Z" fill="#D7BD8E"/>
<path d="M91.6476 94.721C89.8204 95.1547 84.2434 94.0709 84.6265 92.6221C84.9792 91.2921 85.5392 84.0074 85.4506 81.0298L92.2535 85.3363C92.2474 86.0111 92.1508 90.6959 91.6476 94.721Z" fill="#D7BD8E"/>
<path d="M84.4697 77.411C84.5614 78.948 84.9356 80.431 85.1513 81.414C85.9659 85.1705 93.4239 87.1837 93.8724 87.0666C95.5144 86.6375 99.1929 83.8301 98.2863 80.7878C97.2289 77.245 96.3801 76.9522 96.2378 73.5058C96.227 73.1672 96.165 72.8775 96.0656 72.613C94.9948 72.9107 91.8941 72.7488 91.0647 71.8227C90.9005 73.1887 87.1452 74.4503 85.37 74.2777C85.2536 75.1089 86.308 78.4593 85.4441 78.5913C85.2379 78.6257 84.85 78.1612 84.4697 77.411Z" fill="#D7BD8E"/>
<path d="M93.8738 87.0694C93.8712 87.2186 92.5168 87.3373 90.9145 86.8398C90.1176 86.5949 89.4436 86.206 89.0254 85.841C88.6028 85.472 88.4494 85.1488 88.5108 85.0997C88.5795 85.0405 88.8354 85.2415 89.277 85.4865C89.721 85.7316 90.3556 86.0241 91.1019 86.2536C92.5896 86.7191 93.8882 86.8809 93.8738 87.0694Z" fill="#C1A97C"/>
<path d="M85.5203 81.0741C83.8226 82.4783 81.848 78.38 83.44 77.438C83.8997 77.1658 84.8529 76.9576 85.2229 77.8971C85.6221 78.911 85.8922 80.7666 85.5203 81.0741Z" fill="#D7BD8E"/>
<path d="M83.9903 78.1705C84.4276 78.4294 85.2854 79.3829 84.8969 80.2286C84.8969 80.2286 84.838 79.6975 84.5174 79.4077L83.7703 79.1668L84.4727 79.0325L83.9903 78.1705ZM93.0164 77.9844C92.7026 78.153 93.8858 79.2406 93.2562 79.4414C92.6266 79.6419 93.7082 79.7641 93.7754 79.2359C93.8423 78.7079 93.2946 77.8348 93.0164 77.9844Z" fill="#5C4211"/>
<path d="M90.7272 77.3086C90.9163 77.6563 90.8058 78.0814 90.4807 78.258C90.1555 78.4346 89.7391 78.2961 89.5502 77.9482C89.3611 77.6006 89.4714 77.1753 89.7965 76.9986C90.1216 76.822 90.5383 76.9607 90.7272 77.3086Z" fill="#5C4211"/>
<path d="M90.5608 77.2079C90.616 77.3268 90.5805 77.4601 90.4821 77.5058C90.3831 77.5514 90.2585 77.4923 90.2036 77.3736C90.1486 77.2547 90.1842 77.1211 90.2829 77.0756C90.3812 77.0301 90.5061 77.0892 90.5608 77.2079Z" fill="white"/>
<path d="M87.7469 76.9944C87.5661 77.0603 87.2912 76.5919 87.4367 76.4658C87.4367 76.4658 88.9031 74.6639 90.5816 75.0258C90.5816 75.0258 90.7208 75.3713 90.711 75.4919C90.6958 75.6817 89.8973 75.7681 89.6902 75.8151C89.066 75.9568 87.7469 76.9944 87.7469 76.9944Z" fill="#5C4211"/>
<path d="M95.3143 76.1999C95.3563 76.5936 95.0924 76.9447 94.7244 76.9839C94.3565 77.0234 94.0242 76.7364 93.982 76.3428C93.9397 75.9491 94.2039 75.5982 94.5716 75.5588C94.9396 75.5195 95.2721 75.8066 95.3143 76.1999Z" fill="#5C4211"/>
<path d="M95.1988 76.0439C95.2044 76.1744 95.1207 76.2842 95.0122 76.2888C94.9037 76.2934 94.811 76.1911 94.8054 76.0605C94.7999 75.9295 94.8835 75.82 94.992 75.8154C95.1007 75.8105 95.1935 75.9129 95.1988 76.0439Z" fill="white"/>
<path d="M95.5059 74.5782C95.646 74.5514 95.641 74.1905 95.518 74.1515C95.518 74.1515 93.2789 73.9378 93.1727 74.2195C93.1727 74.2195 93.1181 74.5703 93.1416 74.6664C93.179 74.8173 93.3588 74.9514 93.5906 74.9069L95.5059 74.5782Z" fill="#5C4211"/>
<path d="M92.2585 82.2111C94.368 82.3334 94.504 81.5363 95.3741 81.4486C95.85 81.4007 96.1435 81.7801 96.0266 82.1781C96.0266 82.1781 95.4645 84.0506 93.0027 83.6875C91.4509 83.4592 91.7932 82.1845 92.2585 82.2111Z" fill="white"/>
<path d="M181.413 40.6219H124.568C121.503 40.6219 119.011 43.1072 119.011 46.1788V76.599L107.681 82.5886C108.051 82.5607 114.18 82.4281 119.032 82.3233C119.283 85.1645 121.671 87.3914 124.568 87.3914H181.413C184.484 87.3914 186.97 84.8992 186.97 81.8276V46.1787C186.97 43.1072 184.484 40.6219 181.413 40.6219Z" fill="#FFEDCD"/>
<path d="M151.79 65.371V76.2383C151.79 78.0681 150.31 79.5475 148.486 79.5475H131.518C129.688 79.5475 128.208 78.0681 128.208 76.2383V62.1676C128.208 60.3434 129.688 58.8641 131.518 58.8641H145.911C145.833 59.131 145.633 59.359 145.332 59.4481C144.52 59.6872 144.52 60.8385 145.332 61.0776C145.905 61.2501 146.128 61.9397 145.766 62.4125C145.638 62.5737 145.588 62.7516 145.588 62.9296C145.588 63.4635 146.122 63.9473 146.723 63.7304C147.285 63.5302 147.874 63.9585 147.857 64.5536C147.835 65.3989 148.931 65.7549 149.409 65.0597C149.576 64.8094 149.843 64.687 150.11 64.687C150.377 64.687 150.644 64.8094 150.811 65.0597C151.055 65.4156 151.456 65.4935 151.79 65.371ZM155.921 65.2836H173.176C173.675 65.2836 174.081 64.8785 174.081 64.3786C174.081 63.8788 173.675 63.474 173.176 63.474H155.921C155.421 63.474 155.016 63.8788 155.016 64.3786C155.016 64.8785 155.421 65.2836 155.921 65.2836ZM176.091 65.2836H178.552C179.051 65.2836 179.456 64.8785 179.456 64.3786C179.456 63.8788 179.051 63.474 178.552 63.474H176.091C175.592 63.474 175.187 63.8788 175.187 64.3786C175.187 64.8785 175.592 65.2836 176.091 65.2836ZM159.69 73.1247H155.921C155.421 73.1247 155.016 73.5296 155.016 74.0293C155.016 74.5294 155.421 74.9345 155.921 74.9345H159.69C160.189 74.9345 160.594 74.5294 160.594 74.0293C160.595 73.5296 160.189 73.1247 159.69 73.1247ZM169.039 73.1247H162.605C162.106 73.1247 161.701 73.5296 161.701 74.0293C161.701 74.5294 162.106 74.9345 162.605 74.9345H169.039C169.539 74.9345 169.944 74.5294 169.944 74.0293C169.944 73.5296 169.539 73.1247 169.039 73.1247ZM178.552 68.2993H168.134C167.635 68.2993 167.23 68.7044 167.23 69.2039C167.23 69.7037 167.635 70.1085 168.134 70.1085H178.552C179.051 70.1085 179.456 69.7038 179.456 69.2039C179.456 68.7045 179.051 68.2993 178.552 68.2993ZM155.921 70.1085H165.219C165.719 70.1085 166.124 69.7038 166.124 69.2039C166.124 68.7044 165.719 68.2993 165.219 68.2993H155.921C155.421 68.2993 155.016 68.7044 155.016 69.2039C155.016 69.7038 155.421 70.1085 155.921 70.1085Z" fill="white"/>
<path d="M132.412 65.5176L139.932 63.92L147.452 65.0234L140.064 67.571L132.412 65.5176Z" fill="#FFB939"/>
<path d="M140.269 75.2285L147.588 73.4412L147.452 65.0234L140.039 66.6009L140.269 75.2285Z" fill="#F5A209"/>
<path opacity="0.5" d="M135.777 64.8028L138.13 64.3168L144.794 65.5453L144.875 67.2368L143.949 67.523L143.777 67.2473L143.687 67.6381L142.98 67.8826L142.957 66.0712L135.777 64.8028Z" fill="#FFEDCD"/>
<path opacity="0.5" d="M143.784 74.3732L143.78 73.06L144.234 72.9719L144.334 73.1323L144.386 72.9077L145.574 72.5708L145.713 73.901L143.784 74.3732Z" fill="#FFEDCD"/>
<path d="M132.412 65.5176L132.653 74.1645L140.269 75.2285L140.039 66.6009L132.412 65.5176Z" fill="#FFB939"/>
<path d="M132.412 65.5176L140.039 66.6009C140.039 66.6009 137.659 66.8808 136.079 66.6009C134.498 66.321 132.412 65.5176 132.412 65.5176Z" fill="#F5A209"/>
<path d="M153.362 59.7085C152.972 59.5935 152.819 59.1227 153.067 58.8005C153.419 58.3432 152.959 57.709 152.415 57.9023C152.032 58.0386 151.631 57.7476 151.643 57.3412C151.659 56.7643 150.913 56.5222 150.587 56.9981C150.357 57.3336 149.862 57.3336 149.632 56.9981C149.306 56.5222 148.56 56.7644 148.576 57.3412C148.588 57.7476 148.187 58.0386 147.804 57.9023C147.26 57.7089 146.8 58.3431 147.152 58.8005C147.4 59.1227 147.247 59.5935 146.856 59.7085C146.303 59.8715 146.303 60.6555 146.856 60.8185C147.247 60.9334 147.4 61.4043 147.152 61.7265C146.8 62.1837 147.26 62.818 147.804 62.6246C148.187 62.4883 148.588 62.7793 148.576 63.1858C148.56 63.7626 149.306 64.0049 149.632 63.5288C149.862 63.1934 150.357 63.1934 150.587 63.5288C150.913 64.0048 151.659 63.7626 151.643 63.1858C151.631 62.7793 152.032 62.4884 152.415 62.6246C152.959 62.8181 153.419 62.1838 153.067 61.7265C152.819 61.4043 152.972 60.9334 153.362 60.8185C153.916 60.6555 153.916 59.8716 153.362 59.7085Z" fill="white"/>
<path d="M149.973 61.5432C149.703 61.5197 149.407 61.4104 149.208 61.2465L149.438 60.9423C149.646 61.0867 149.853 61.1843 150.092 61.1843C150.379 61.1843 150.52 61.0595 150.52 60.8489C150.52 60.334 149.319 60.408 149.319 59.6746C149.319 59.3118 149.575 59.0542 149.972 58.9919V58.5938H150.326V58.9839C150.609 59.0154 150.803 59.1361 150.966 59.2882L150.706 59.5496C150.542 59.4172 150.405 59.3428 150.193 59.3428C149.955 59.3428 149.809 59.4521 149.809 59.6551C149.809 60.123 151.01 60.0297 151.01 60.8177C151.01 61.1881 150.763 61.4613 150.326 61.5315V61.9334H149.972V61.5432H149.973Z" fill="#FFEDCD"/>
<path d="M131.206 51.8216C129.556 51.8216 128.208 50.5822 128.208 48.824C128.208 47.0747 129.556 45.8353 131.206 45.8353C132.872 45.8353 134.195 47.0747 134.195 48.824C134.195 50.5822 132.863 51.8216 131.206 51.8216ZM131.206 50.7751C132.261 50.7751 132.989 50.013 132.989 48.824C132.989 47.6351 132.261 46.8899 131.206 46.8899C130.143 46.8899 129.414 47.6351 129.414 48.824C129.414 50.013 130.143 50.7751 131.206 50.7751ZM137.262 45.9192C138.669 45.9192 139.372 46.7312 139.372 47.7108C139.372 48.4225 138.979 49.1424 138.041 49.3933L139.439 51.7629H138.083L136.794 49.4853H136.241V51.7629H135.069V45.9192H137.262ZM137.221 46.8899H136.241V48.6065H137.221C137.874 48.6065 138.167 48.263 138.167 47.736C138.167 47.2165 137.874 46.8899 137.221 46.8899ZM145.562 48.8492C145.562 50.6156 144.348 51.7629 142.481 51.7629H140.439V45.9191H142.481C144.348 45.9192 145.562 47.0747 145.562 48.8492ZM142.44 50.767C143.67 50.767 144.365 50.0634 144.365 48.8492C144.365 47.635 143.67 46.907 142.44 46.907H141.611V50.767H142.44ZM149.836 46.8647H147.617V48.3304H149.585V49.2596H147.617V50.8085H149.836V51.7629H146.445V45.9103H149.836V46.8647ZM153.095 45.9192C154.502 45.9192 155.205 46.7312 155.205 47.7108C155.205 48.4225 154.811 49.1424 153.873 49.3933L155.272 51.7629H153.915L152.626 49.4853H152.074V51.7629H150.902V45.9192H153.095ZM153.053 46.8899H152.074V48.6065H153.053C153.706 48.6065 153.999 48.263 153.999 47.736C153.999 47.2165 153.706 46.8899 153.053 46.8899ZM163.263 45.9103V51.7629H162.091L159.437 47.7524V51.7629H158.265V45.9103H159.437L162.091 49.9291V45.9103H163.263ZM167.134 51.8216C165.485 51.8216 164.137 50.5822 164.137 48.824C164.137 47.0747 165.485 45.8353 167.134 45.8353C168.8 45.8353 170.123 47.0747 170.123 48.824C170.123 50.5822 168.792 51.8216 167.134 51.8216ZM167.134 50.7751C168.189 50.7751 168.918 50.013 168.918 48.824C168.918 47.6351 168.189 46.8899 167.134 46.8899C166.071 46.8899 165.343 47.6351 165.343 48.824C165.343 50.013 166.071 50.7751 167.134 50.7751ZM170.604 45.9192H171.86L172.89 50.4568L174.079 45.9192H175.385L176.507 50.4316L177.545 45.9192H178.809L177.176 51.7629H175.795L174.698 47.6017L173.551 51.7629L172.178 51.7712L170.604 45.9192Z" fill="#F6D291"/>
<path d="M107.916 51.0059C106.174 48.5002 103.95 50.6834 103.95 50.6834C103.95 50.6834 101.726 48.5002 99.9842 51.0059C98.1461 53.6497 101.629 57.7149 103.95 58.8113C106.272 57.7149 109.754 53.6497 107.916 51.0059Z" fill="#F6D291"/>
<path d="M73.3531 57.0989C72.2087 55.4524 70.7471 56.8869 70.7471 56.8869C70.7471 56.8869 69.2855 55.4523 68.1411 57.0989C66.9333 58.8362 69.2216 61.5074 70.7471 62.228C72.2726 61.5074 74.5609 58.8362 73.3531 57.0989Z" fill="#FFEDCD"/>
<path d="M133.403 117.138L137.536 117.126L137.558 125.013L133.426 125.025C132.754 125.026 132.208 124.483 132.206 123.812L132.19 118.358C132.187 117.686 132.731 117.14 133.403 117.138Z" fill="#F6D291"/>
<path d="M146.204 119.65H146.164L146.159 118.29C146.158 117.569 145.572 116.987 144.85 116.989L141.187 116.999C141.187 116.999 142.672 114.917 142.669 113.585C142.666 112.394 142.607 110.815 140.849 110.819C140.849 110.819 140.211 111.214 140.216 113.005C140.221 114.657 136.818 117.118 136.818 117.118L136.841 125.271C136.841 125.271 137.589 125.961 138.762 125.958L144.063 125.943C144.814 125.941 145.421 125.331 145.419 124.58L145.416 123.755C145.857 123.753 146.215 123.394 146.213 122.953L146.211 121.993C146.475 121.993 146.689 121.777 146.689 121.513L146.685 120.128C146.684 119.863 146.468 119.649 146.204 119.65Z" fill="#FFEDCD"/>
</svg>
